<?xml version="1.0" standalone="no"?>
<!DOCTYPE svg PUBLIC "-//W3C//DTD SVG 20010904//EN"
 "http://www.w3.org/TR/2001/REC-SVG-20010904/DTD/svg10.dtd">
<svg version="1.0" xmlns="http://www.w3.org/2000/svg"
 width="999.000000pt" height="444.000000pt" viewBox="0 0 999.000000 444.000000"
 preserveAspectRatio="xMidYMid meet">

<g transform="translate(0.000000,444.000000) scale(0.100000,-0.100000)"
fill="#000000" stroke="none">
<path d="M1861 4080 c-471 -39 -874 -221 -1214 -549 -316 -304 -511 -703 -567
-1156 -14 -111 -14 -384 -1 -486 61 -462 261 -864 587 -1179 374 -361 841
-550 1359 -550 634 0 1187 276 1571 785 262 347 394 747 394 1190 0 501 -159
922 -488 1291 -403 452 -1033 703 -1641 654z m529 -313 c378 -89 720 -294 935
-561 144 -177 261 -397 319 -600 74 -254 85 -572 29 -846 -40 -201 -147 -446
-271 -620 -80 -113 -257 -292 -367 -373 -377 -276 -855 -383 -1323 -297 -585
107 -1081 535 -1267 1093 -65 193 -84 301 -91 502 -8 227 13 398 73 590 32
101 126 301 188 396 220 339 588 602 980 698 175 43 248 51 475 47 186 -4 229
-8 320 -29z"/>
<path d="M2304 3232 l-141 -3 -66 -172 c-37 -94 -141 -368 -232 -607 -353
-925 -390 -1021 -466 -1221 -44 -113 -79 -211 -79 -217 0 -9 44 -12 158 -12
l157 1 189 477 c268 673 650 1628 675 1685 12 27 21 52 21 57 0 12 -59 15
-216 12z"/>
<path d="M970 2180 l0 -860 160 0 160 0 -2 858 -3 857 -157 3 -158 3 0 -861z"/>
<path d="M2680 2724 c-180 -48 -297 -173 -347 -370 -26 -102 -26 -579 0 -674
34 -124 73 -195 146 -266 178 -172 538 -162 716 21 66 67 117 168 141 280 25
116 25 508 0 615 -50 213 -188 360 -374 399 -73 15 -216 13 -282 -5z m253
-286 c23 -13 52 -38 64 -57 46 -67 53 -118 53 -361 0 -243 -7 -294 -53 -361
-79 -117 -276 -109 -352 15 l-30 49 0 291 c0 291 0 292 25 340 14 27 37 58 51
68 69 52 165 58 242 16z"/>
<path d="M4460 3068 l0 -728 370 0 370 0 0 125 0 125 -235 0 -235 0 0 603 0
602 -135 0 -135 0 0 -727z"/>
<path d="M5390 3778 c-48 -25 -90 -89 -90 -138 0 -46 42 -113 85 -137 108 -61
239 15 239 136 -1 124 -123 197 -234 139z"/>
<path d="M6198 3335 c-58 -21 -107 -63 -139 -119 l-29 -51 0 88 0 87 -120 0
-120 0 0 -500 0 -500 130 0 130 0 0 323 c0 320 0 324 23 368 53 100 186 130
269 61 60 -51 62 -64 66 -424 l4 -328 124 0 125 0 -3 373 c-3 356 -4 374 -25
426 -45 109 -97 160 -197 194 -60 21 -185 21 -238 2z"/>
<path d="M5330 2840 l0 -500 130 0 130 0 0 500 0 500 -130 0 -130 0 0 -500z"/>
<path d="M6820 3019 c0 -428 12 -497 102 -595 70 -76 104 -89 238 -89 92 0
122 4 148 18 40 22 112 94 112 113 0 7 5 16 11 20 8 5 10 -15 7 -70 l-3 -76
121 0 122 0 4 48 c3 26 5 251 6 500 l2 452 -124 0 -125 0 -3 -322 c-3 -311 -4
-324 -25 -364 -32 -60 -83 -89 -160 -89 -66 0 -98 15 -137 69 -20 26 -21 42
-24 367 l-3 339 -134 0 -135 0 0 -321z"/>
<path d="M7840 3336 c0 -2 43 -75 97 -162 53 -88 119 -196 146 -241 l49 -83
-82 -127 c-46 -71 -97 -148 -113 -173 -17 -25 -54 -82 -83 -127 l-54 -83 149
0 148 0 53 93 c29 50 72 124 94 164 22 40 44 69 49 64 4 -4 47 -77 96 -162
l87 -154 147 -3 c81 -1 147 0 147 3 0 3 -70 116 -155 251 -85 134 -155 247
-155 250 0 3 51 85 114 182 62 98 132 207 155 245 l41 67 -143 0 -143 0 -32
-62 c-66 -129 -140 -259 -147 -259 -4 0 -45 71 -90 158 l-82 158 -146 3 c-81
1 -147 1 -147 -2z"/>
<path d="M4740 2020 c-68 -15 -160 -64 -211 -113 -137 -131 -157 -375 -42
-525 41 -54 133 -107 302 -173 179 -70 216 -90 242 -133 28 -47 26 -121 -7
-163 -39 -52 -91 -73 -178 -73 -96 0 -182 27 -270 85 -38 25 -70 45 -72 45 -5
0 -124 -190 -124 -198 0 -11 104 -89 150 -112 118 -60 299 -84 430 -56 156 33
252 105 313 234 30 62 32 75 32 177 0 105 -2 114 -33 177 -55 113 -128 164
-363 252 -164 62 -229 118 -229 196 0 88 73 140 198 140 94 0 157 -17 236 -65
32 -19 60 -35 61 -35 2 0 29 48 59 106 53 100 56 107 39 120 -26 20 -150 79
-208 99 -59 20 -256 29 -325 15z"/>
<path d="M5764 1600 c-149 -32 -274 -163 -319 -336 -18 -68 -20 -206 -4 -289
50 -274 314 -437 597 -370 75 18 157 56 206 97 l36 29 -17 32 c-9 18 -31 56
-49 84 l-34 53 -57 -35 c-84 -51 -143 -68 -218 -63 -90 6 -151 44 -187 118
-15 30 -28 66 -30 80 l-3 25 309 3 308 2 -4 123 c-6 140 -25 209 -86 296 -41
61 -99 106 -170 134 -54 22 -213 31 -278 17z m155 -191 c78 -16 141 -99 141
-186 l0 -23 -185 0 -185 0 0 28 c0 41 47 128 82 153 17 12 44 25 62 29 17 5
32 8 33 9 1 1 25 -4 52 -10z"/>
<path d="M6870 1590 c-59 -20 -135 -90 -146 -136 -13 -50 -24 -21 -24 61 l0
85 -120 0 -120 0 0 -490 0 -490 128 0 128 0 0 283 c1 262 2 285 21 328 36 82
130 128 234 116 l49 -6 0 134 0 135 -47 0 c-27 -1 -73 -9 -103 -20z"/>
<path d="M8375 1596 c-80 -20 -126 -46 -188 -108 -70 -70 -113 -156 -133 -270
-18 -98 -12 -221 16 -309 72 -234 315 -361 578 -305 77 17 178 65 215 103 l27
29 -50 81 -50 82 -51 -35 c-121 -81 -264 -85 -355 -11 -38 32 -84 116 -84 155
l0 22 310 0 310 0 0 78 c0 212 -65 355 -198 441 -88 56 -230 76 -347 47z m200
-199 c55 -27 86 -76 100 -156 l7 -41 -191 0 c-188 0 -191 0 -191 21 0 41 24
100 54 135 48 56 153 75 221 41z"/>
<path d="M9479 1596 c-69 -24 -106 -55 -135 -111 l-29 -55 -5 82 -5 83 -115 0
-115 0 0 -487 0 -487 123 -3 122 -3 0 265 c0 277 7 334 43 387 42 62 155 99
226 75 l31 -11 0 140 0 139 -52 0 c-29 -1 -69 -7 -89 -14z"/>
<path d="M7070 1528 c16 -40 60 -156 98 -258 38 -102 109 -290 158 -417 l88
-233 122 0 c71 0 125 4 129 10 6 10 365 961 365 967 0 2 -59 2 -132 1 l-132
-3 -18 -45 c-21 -55 -160 -490 -184 -577 -10 -35 -20 -63 -23 -63 -3 0 -18 42
-32 93 -29 101 -163 525 -181 570 l-10 27 -139 0 -138 0 29 -72z"/>
</g>
</svg>
